<?xml version="1.0" encoding="utf-8"?>
<!-- Generator: Adobe Illustrator 26.0.0, SVG Export Plug-In . SVG Version: 6.00 Build 0)  -->
<svg version="1.1" id="Capa_1" xmlns="http://www.w3.org/2000/svg" xmlns:xlink="http://www.w3.org/1999/xlink" x="0px" y="0px"
	 viewBox="0 0 256 256" style="enable-background:new 0 0 256 256;" xml:space="preserve">
<style type="text/css">
	.st0{fill-rule:evenodd;clip-rule:evenodd;}
</style>
<desc></desc>
<g>
	<path class="st0" d="M216.8,52.6c2.7,11.3,5.4,22.6,8.2,33.9l8.2,33.9l-30,4.8c-0.2,2.9-1.9,8.1-2.6,10.9l-5.2,21.7
		c-0.7,2.9-2.4,8.2-2.5,11l34.9,18.3c1.9,0.9,3.2,1.8,4.9,2.7c-1.8,2.6-3.6,4.9-5.5,7.5L210.2,220l15.8,23.1
		c-6.3-1.4-27.6-8.5-35.4-10.8l-12.1-3.7c0.2-2,3.4-9.9,4.3-11.9l4.4-11.8c-1.9-0.4-3.3-1.4-5-2.1l-26.4-11.6
		c-3.7-1.7-7.1-2.9-10.5-4.7l7.1-45.2c-1.5,0.4-5.9,2.9-7.6,3.8l-45.4,23.5c-2.8,1.5-5.3,2.5-8,3.9L90.4,199
		c-0.1,2.6-0.4,2.4-0.6,4.8c-0.1,1.7,0.1,3.6,0,5.4c-0.1,2.7-0.6,2.7-0.6,5.4l-53.3-13c-1.8-0.4-6.2-1.3-7.7-2.1
		c-0.5,2.2-1.5,5-2.1,7.1L10.2,256H256V11.1c-2.1,1.4-25.4,26.7-29,31.1L216.8,52.6z"/>
	<path class="st0" d="M34.8,1.5l20.3,13.3c1.7,1.3,3.2,2.1,4.8,3.3l42,34.4l17.2,16.9c1.5,1.6,2.1,2.6,3.8,4.3
		c5.6,5.4,22.9,27.1,27,32.5c2.6,3.3,4.6,6.3,7.1,9.7c2.7,3.6,12.4,18.9,14,20.1c0-32.6-9.3-54.1-26-78.7c-1.2-1.7-1.9-2.4-2.8-4.2
		c-5.5,0-5.9,1.7-12.3,0.3c-8.7-1.9-15.6-8.7-18.2-17c-1.8-5.8-0.9-7.5,0-13.4C106,20.1,99.6,14.5,88,9.2
		C73.1,2.3,52.3-2.6,34.8,1.5L34.8,1.5z"/>
	<path class="st0" d="M0,151.2c2,9.1,8,11.5,14,14.4l93.3-92.4c-2.5-3.6-7.2-7.6-10.4-10.5c-1.5-1.3-2-2.6-4-3.1L0,151.2z"/>
	<path class="st0" d="M147,129.5c-0.6-1.7,0.2-0.6-1.9-1.9c-1.1-0.7-1.5-0.9-2.4-1.4c-9.6-5.7-25.9-15.7-34.9-20.4l-7.6,13.4
		c-1.7,3.3-3.9,5.5-2.5,6.2L147,129.5z"/>
	<path class="st0" d="M184.6,110.7c1.5-1.1,3.7-8.8,4.2-10.9c1.5-5.5,10.8-31.8,11-34.3h-20.2L184.6,110.7z"/>
	<path class="st0" d="M127.9,22.5c-1.5,0.3-5.1-0.1-6.8,4.6c-1.1,3.2-0.5,6.1,0.7,8.8c6,12.8,27,10,19.7-5.4c-2-4.3-8-8.7-12.6-8.3
		C128.3,22.2,128.1,22.4,127.9,22.5L127.9,22.5z"/>
</g>
</svg>
