<svg xmlns="http://www.w3.org/2000/svg" viewBox="0 0 192 192"><defs><style>.cls-1{fill:#575756;}.cls-2{fill:none;}</style></defs><g id="Capa_2" data-name="Capa 2"><g id="Capa_2-2" data-name="Capa 2"><path class="cls-1" d="M7.5,151.7V128.8H11L17.9,144l6.8-15.2h3.5v22.9H24.6V138l-6,13.7H17.2l-6-13.7v13.7Z"/><path class="cls-1" d="M36.6,152.1a4.9,4.9,0,0,1-2.8-.7,4.1,4.1,0,0,1-1.8-1.9,5.3,5.3,0,0,1-.6-2.6,6.6,6.6,0,0,1,.3-2.1,5.4,5.4,0,0,1,1.1-1.8,5.6,5.6,0,0,1,2-1.2l2.1-.7,2.7-.5,3.3-.5-1.4.8a2.9,2.9,0,0,0-.7-2.2,2.8,2.8,0,0,0-2.2-.7,3.1,3.1,0,0,0-1.8.5,2.4,2.4,0,0,0-1.3,1.6L32,138.8a6,6,0,0,1,2.2-3.4,6.6,6.6,0,0,1,4.4-1.3,8.7,8.7,0,0,1,3.7.7,4.7,4.7,0,0,1,2.4,2.4,4.1,4.1,0,0,1,.5,1.9,13.4,13.4,0,0,1,.1,2.1v10.5H41.9v-3.6l.5.8a8.5,8.5,0,0,1-2.5,2.5A6.7,6.7,0,0,1,36.6,152.1Zm.8-3.4a3.4,3.4,0,0,0,1.8-.4l1.2-.9.6-.9a7.1,7.1,0,0,0,.4-1.7v-1.5l1.2.3-2.8.5-1.8.4-1.2.4-.9.6-.5.6a1.9,1.9,0,0,0-.2.8,1.7,1.7,0,0,0,.3,1,1.2,1.2,0,0,0,.8.6A2,2,0,0,0,37.4,148.7Z"/><path class="cls-1" d="M49.1,151.7V134.5h3.4v4.2l-.4-.5a8,8,0,0,1,.8-1.6,4.9,4.9,0,0,1,1.3-1.2,3.4,3.4,0,0,1,1.2-.6,3.2,3.2,0,0,1,1.4-.3h1.4v4.1a3.4,3.4,0,0,0-1.5-.2l-1.6.4a5.2,5.2,0,0,0-1.1,1,5.7,5.7,0,0,0-.8,1.3,11,11,0,0,0-.2,1.8v8.8Z"/><path class="cls-1" d="M61.2,132.2v-3.8h3.9v3.8Zm0,19.5V134.5h3.9v17.2Z"/><path class="cls-1" d="M76.4,152.1a7.2,7.2,0,0,1-4.1-1.1,7.6,7.6,0,0,1-2.7-3.2,10.2,10.2,0,0,1-1-4.7,9.9,9.9,0,0,1,1-4.7,8,8,0,0,1,2.8-3.2,6.9,6.9,0,0,1,4-1.1,7.3,7.3,0,0,1,4.2,1.1,7.6,7.6,0,0,1,2.7,3.2,11.5,11.5,0,0,1,0,9.4,7.7,7.7,0,0,1-2.7,3.2A7.3,7.3,0,0,1,76.4,152.1Zm0-4a3.4,3.4,0,0,0,2.9-1.4,6.4,6.4,0,0,0,.9-3.6,5.7,5.7,0,0,0-1-3.6,2.9,2.9,0,0,0-2.8-1.4,3.7,3.7,0,0,0-2.1.6,4.1,4.1,0,0,0-1.2,1.8,9.5,9.5,0,0,0-.4,2.6,6,6,0,0,0,1,3.7A3,3,0,0,0,76.4,148.1Z"/><path class="cls-1" d="M93.3,151.7V128.8h3.5l6.8,15.2,6.9-15.2H114v22.9h-3.7V138l-6,13.7h-1.4l-6-13.7v13.7Z"/><path class="cls-1" d="M125,152.1a7.2,7.2,0,0,1-4.1-1.1,7.6,7.6,0,0,1-2.7-3.2,10.2,10.2,0,0,1-1-4.7,9.9,9.9,0,0,1,1-4.7,7.3,7.3,0,0,1,2.8-3.2,6.7,6.7,0,0,1,4-1.1,7.3,7.3,0,0,1,4.2,1.1,8.4,8.4,0,0,1,2.7,3.2,11.5,11.5,0,0,1,0,9.4,7.3,7.3,0,0,1-2.8,3.2A6.8,6.8,0,0,1,125,152.1Zm0-4a3.1,3.1,0,0,0,2.8-1.4,7,7,0,0,0,0-7.2,2.9,2.9,0,0,0-2.8-1.4,3.7,3.7,0,0,0-2.1.6,4.1,4.1,0,0,0-1.2,1.8,6.8,6.8,0,0,0-.4,2.6,6,6,0,0,0,1,3.7A3,3,0,0,0,125,148.1Z"/><path class="cls-1" d="M136.4,151.7V128.4h3.9v23.3Z"/><path class="cls-1" d="M144.9,132.2v-3.8h3.9v3.8Zm0,19.5V134.5h3.9v17.2Z"/><path class="cls-1" d="M153.1,151.7V134.5h3.5v5.7h.5v11.5Zm10.6,0v-9.6a16.2,16.2,0,0,0-.4-1.9,3.1,3.1,0,0,0-1-1.5,2.7,2.7,0,0,0-1.9-.6,2.3,2.3,0,0,0-1.1.2,3,3,0,0,0-1.1.6,5.3,5.3,0,0,0-.8,1.5,8.8,8.8,0,0,0-.3,2.6l-2.3-1.2a9.6,9.6,0,0,1,.8-3.8,7,7,0,0,1,2.2-2.9,6.6,6.6,0,0,1,3.8-1.1,6.3,6.3,0,0,1,3,.7,4.9,4.9,0,0,1,1.8,1.7,10.2,10.2,0,0,1,.9,2.2c.2.8.3,1.5.4,2.1v11Z"/><path class="cls-1" d="M175.8,152.1a5.4,5.4,0,0,1-2.9-.7,4.5,4.5,0,0,1-1.7-1.9,5.3,5.3,0,0,1-.6-2.6,6.6,6.6,0,0,1,.3-2.1A4.2,4.2,0,0,1,172,143a5.6,5.6,0,0,1,2-1.2l2-.7,2.8-.5,3.3-.5-1.4.8a3.4,3.4,0,0,0-.7-2.2,2.8,2.8,0,0,0-2.2-.7,3.1,3.1,0,0,0-1.8.5,2.4,2.4,0,0,0-1.3,1.6l-3.6-1.3a6.7,6.7,0,0,1,2.3-3.4,6.4,6.4,0,0,1,4.4-1.3,8,8,0,0,1,3.6.7,4.5,4.5,0,0,1,2.5,2.4,4.1,4.1,0,0,1,.5,1.9,13.4,13.4,0,0,1,.1,2.1v10.5h-3.4v-3.6l.5.8a8.5,8.5,0,0,1-2.5,2.5A6.7,6.7,0,0,1,175.8,152.1Zm.8-3.4a3.4,3.4,0,0,0,1.8-.4l1.2-.9.6-.9a7.1,7.1,0,0,0,.4-1.7v-1.5l1.2.3-2.9.5-1.7.4-1.2.4-.9.6-.5.6a1.9,1.9,0,0,0-.2.8,1.7,1.7,0,0,0,.3,1,1.3,1.3,0,0,0,.7.6A2.5,2.5,0,0,0,176.6,148.7Z"/><polygon class="cls-1" points="45.2 120.7 21.8 120.7 21.8 72.4 45.2 120.7"/><polygon class="cls-1" points="50.6 120.7 74.1 120.7 74.1 72.4 50.6 120.7"/><polyline class="cls-1" points="143.8 93.5 117.4 39.9 103.7 39.9 103.7 120.7 117.9 120.7 117.9 72.4 141.4 120.7 146.8 120.7 170.4 72.4 170.2 120.7 184.5 120.7 184.5 39.9 170.8 39.9"/><polyline class="cls-2" points="47.6 93.5 21.2 39.9 7.5 39.9 7.5 120.7 21.8 120.7 21.8 72.4 45.2 120.7 50.6 120.7 74.1 72.4 74.1 120.7 88.3 120.7 88.3 39.9 74.6 39.9"/><polygon class="cls-1" points="74.6 39.9 47.6 93.5 21.2 39.9 74.6 39.9"/><rect class="cls-2" width="192" height="192"/></g></g></svg>