<svg xmlns="http://www.w3.org/2000/svg" viewBox="0 0 904 573.4"><defs><style>.cls-1{fill:#fff;}.cls-2{fill:none;}</style></defs><g id="Capa_2" data-name="Capa 2"><g id="Capa_2-2" data-name="Capa 2"><path class="cls-1" d="M0,571V454.4H17.9L53,531.8l35-77.4h17.9V571H87.2V501.4L56.5,571H49.4L18.7,501.4V571Z"/><path class="cls-1" d="M148.6,573.4a27.6,27.6,0,0,1-14.5-3.6,24.4,24.4,0,0,1-9-9.6,29.5,29.5,0,0,1-3-13.3,32.3,32.3,0,0,1,1.7-11.1,21.8,21.8,0,0,1,5.5-8.9,28.7,28.7,0,0,1,10.1-6.4,67.4,67.4,0,0,1,10.6-3.2c4-.9,8.6-1.8,13.8-2.6l17-2.8-7.2,4.4c0-5.2-1.2-9-3.4-11.5s-6-3.6-11.3-3.6a21.2,21.2,0,0,0-9.2,2.3,13.1,13.1,0,0,0-6.7,8.4l-18.1-6.3a33.8,33.8,0,0,1,11.3-17.7c5.5-4.5,13.1-6.8,22.7-6.8a45.4,45.4,0,0,1,18.6,3.6c5.5,2.3,9.6,6.5,12.4,12.3a27.4,27.4,0,0,1,2.8,9.7c.3,3.2.4,6.9.4,10.9V571H175.6V553l2.5,3.8c-3.8,5.8-8,10.1-12.5,12.7S155.4,573.4,148.6,573.4Zm4.2-17.3a18.8,18.8,0,0,0,9.3-2.1,22.2,22.2,0,0,0,6.1-4.9,19.6,19.6,0,0,0,3-4.7,24.8,24.8,0,0,0,1.8-8.3c.2-3.1.3-5.7.3-7.9l5.9,1.7c-6,1-10.8,1.9-14.5,2.7s-6.6,1.4-8.9,2a51.4,51.4,0,0,0-5.9,1.9,21,21,0,0,0-4.8,2.8,10,10,0,0,0-2.6,3.3,8.6,8.6,0,0,0-.9,3.9,9.6,9.6,0,0,0,1.4,5.2,9.1,9.1,0,0,0,3.9,3.3A14.8,14.8,0,0,0,152.8,556.1Z"/><path class="cls-1" d="M212.2,571V483.5h17.7v21.4l-1.9-2.7a32.1,32.1,0,0,1,4.1-8.3,23.2,23.2,0,0,1,6.3-6.2,26.1,26.1,0,0,1,6.3-3,32.2,32.2,0,0,1,7-1.4,34.7,34.7,0,0,1,7.2.2v20.6a20.8,20.8,0,0,0-7.7-.8,20.2,20.2,0,0,0-7.9,2.3,17.4,17.4,0,0,0-6,4.7,20.2,20.2,0,0,0-3.6,7,27.9,27.9,0,0,0-1.3,9V571Z"/><path class="cls-1" d="M274.3,471.4V452h20v19.4Zm0,99.6V483.5h20V571Z"/><path class="cls-1" d="M352.1,573.4c-8,0-15-1.9-21-5.9A40.1,40.1,0,0,1,317,551.2a54.9,54.9,0,0,1-5-23.9c0-9.2,1.7-17.2,5.1-24.1a40.4,40.4,0,0,1,14.2-16.3,40.4,40.4,0,0,1,41.9.1,40.3,40.3,0,0,1,14.2,16.3,55.7,55.7,0,0,1,5,24,54.3,54.3,0,0,1-5.1,24,39.6,39.6,0,0,1-14.2,16.3C367.1,571.5,360.1,573.4,352.1,573.4Zm0-20.5c6.5,0,11.2-2.4,14.4-7.2s4.7-10.9,4.7-18.4-1.6-14-4.8-18.7-7.9-6.9-14.3-6.9a17.4,17.4,0,0,0-10.7,3.2,19,19,0,0,0-6.2,9,39,39,0,0,0-2,13.4q0,11.7,4.8,18.6C341.2,550.6,345.9,552.9,352.1,552.9Z"/><path class="cls-1" d="M438,571V454.4h18l35,77.4,35-77.4h17.9V571H525.2V501.4L494.5,571h-7.1l-30.7-69.6V571Z"/><path class="cls-1" d="M600.3,573.4a37.5,37.5,0,0,1-21.1-5.9,40.1,40.1,0,0,1-14.1-16.3,54.9,54.9,0,0,1-5-23.9c0-9.2,1.7-17.2,5.2-24.1a39.5,39.5,0,0,1,14.1-16.3,38.6,38.6,0,0,1,20.9-5.8,37.7,37.7,0,0,1,21,5.9,40.3,40.3,0,0,1,14.2,16.3,59,59,0,0,1,0,48,41.1,41.1,0,0,1-14.2,16.3A38.1,38.1,0,0,1,600.3,573.4Zm0-20.5c6.4,0,11.2-2.4,14.3-7.2s4.8-10.9,4.8-18.4-1.6-14-4.8-18.7-8-6.9-14.3-6.9a17.5,17.5,0,0,0-10.8,3.2,19.7,19.7,0,0,0-6.2,9,41.5,41.5,0,0,0-2,13.4q0,11.7,4.8,18.6C589.3,550.6,594,552.9,600.3,552.9Z"/><path class="cls-1" d="M658.2,571V452h20V571Z"/><path class="cls-1" d="M701.8,471.4V452h20v19.4Zm0,99.6V483.5h20V571Z"/><path class="cls-1" d="M743.7,571V483.5h17.8v29H764V571Zm54.2,0V529.7c0-2,0-4.5-.2-7.7a38.5,38.5,0,0,0-1.9-9.3,18.1,18.1,0,0,0-5-7.9c-2.4-2.1-5.7-3.1-9.9-3.1a18.6,18.6,0,0,0-5.5.9,12.9,12.9,0,0,0-5.5,3.4,17.9,17.9,0,0,0-4.3,7.5c-1.1,3.3-1.6,7.7-1.6,13.1l-11.5-6a50.1,50.1,0,0,1,3.8-19.4,34.9,34.9,0,0,1,11.5-14.7c5.2-3.7,11.6-5.6,19.4-5.6,6.2,0,11.3,1.2,15.2,3.5a25.4,25.4,0,0,1,9.2,8.9,38.6,38.6,0,0,1,4.7,11.1A66.1,66.1,0,0,1,818,515c.1,3.1.2,5.5.2,6.9V571Z"/><path class="cls-1" d="M859.4,573.4q-8.5,0-14.4-3.6a23.1,23.1,0,0,1-9-9.6,29.5,29.5,0,0,1-3-13.3,35,35,0,0,1,1.6-11.1,24.2,24.2,0,0,1,5.5-8.9,28.3,28.3,0,0,1,10.2-6.4,69.3,69.3,0,0,1,10.5-3.2c4.1-.9,8.7-1.8,13.9-2.6l16.9-2.8-7.2,4.4c0-5.2-1.1-9-3.3-11.5s-6.1-3.6-11.4-3.6a21.9,21.9,0,0,0-9.2,2.3c-3.2,1.6-5.4,4.4-6.7,8.4l-18.1-6.3a34,34,0,0,1,11.4-17.7c5.5-4.5,13.1-6.8,22.6-6.8a45.9,45.9,0,0,1,18.7,3.6A24.4,24.4,0,0,1,900.8,497a29.7,29.7,0,0,1,2.8,9.7c.3,3.2.4,6.9.4,10.9V571H886.5V553l2.5,3.8c-3.9,5.8-8.1,10.1-12.5,12.7S866.3,573.4,859.4,573.4Zm4.3-17.3A18.8,18.8,0,0,0,873,554a23.2,23.2,0,0,0,6-4.9,19.2,19.2,0,0,0,4.9-13c.2-3.1.2-5.7.2-7.9l5.9,1.7q-8.8,1.5-14.4,2.7c-3.7.7-6.6,1.4-8.9,2a51.4,51.4,0,0,0-5.9,1.9,21,21,0,0,0-4.8,2.8,8.8,8.8,0,0,0-2.6,3.3,8.6,8.6,0,0,0-.9,3.9,9.6,9.6,0,0,0,1.4,5.2,9.4,9.4,0,0,0,3.8,3.3A15.7,15.7,0,0,0,863.7,556.1Z"/><polygon class="cls-1" points="192.6 412.7 72.8 412.7 72.8 166.2 192.6 412.7"/><polygon class="cls-1" points="220.1 412.7 339.9 412.7 339.9 166.2 220.1 412.7"/><polyline class="cls-1" points="695.9 274 561.2 0 491.3 0 491.3 412.7 564.1 412.7 564.1 166.2 683.9 412.7 711.4 412.7 832 166.2 831.2 412.7 904 412.7 904 0 834.1 0"/><polyline class="cls-2" points="204.7 274 69.9 0 0 0 0 412.7 72.8 412.7 72.8 166.2 192.6 412.7 220.1 412.7 339.9 166.2 339.9 412.7 412.7 412.7 412.7 0 342.8 0"/><polygon class="cls-1" points="342.8 0 204.7 274 69.9 0 342.8 0"/></g></g></svg>