<?xml version="1.0" encoding="utf-8"?>
<!-- Generator: Adobe Illustrator 26.0.0, SVG Export Plug-In . SVG Version: 6.00 Build 0)  -->
<svg version="1.1" id="Capa_1" xmlns="http://www.w3.org/2000/svg" xmlns:xlink="http://www.w3.org/1999/xlink" x="0px" y="0px"
	 viewBox="0 0 904 573.4" style="enable-background:new 0 0 904 573.4;" xml:space="preserve">
<style type="text/css">
	.st0{fill:#040C18;}
	.st1{fill:none;}
</style>
<path class="st0" d="M0,571V454.4h17.9L53,531.8l35-77.4h17.9V571H87.2v-69.6L56.5,571h-7.1l-30.7-69.6V571H0z"/>
<path class="st0" d="M148.6,573.4c-5.1,0.2-10.1-1.1-14.5-3.6c-3.8-2.3-6.9-5.6-9-9.6c-2-4.1-3.1-8.7-3-13.3
	c-0.1-3.8,0.5-7.5,1.7-11.1c1.1-3.4,3-6.4,5.5-8.9c2.9-2.8,6.3-5,10.1-6.4c3.4-1.4,7-2.4,10.6-3.2c4-0.9,8.6-1.8,13.8-2.6l17-2.8
	l-7.2,4.4c0-5.2-1.2-9-3.4-11.5s-6-3.6-11.3-3.6c-3.2,0.1-6.3,0.8-9.2,2.3c-3.3,1.7-5.8,4.8-6.7,8.4l-18.1-6.3
	c1.8-7,5.7-13.1,11.3-17.7c5.5-4.5,13.1-6.8,22.7-6.8c6.4-0.1,12.7,1.1,18.6,3.6c5.5,2.3,9.6,6.5,12.4,12.3c1.5,3,2.5,6.3,2.8,9.7
	c0.3,3.2,0.4,6.9,0.4,10.9V571h-17.5v-18l2.5,3.8c-3.8,5.8-8,10.1-12.5,12.7S155.4,573.4,148.6,573.4z M152.8,556.1
	c3.2,0.1,6.4-0.6,9.3-2.1c2.3-1.3,4.4-2.9,6.1-4.9c1.2-1.4,2.2-3,3-4.7c1.1-2.6,1.7-5.5,1.8-8.3c0.2-3.1,0.3-5.7,0.3-7.9l5.9,1.7
	c-6,1-10.8,1.9-14.5,2.7s-6.6,1.4-8.9,2c-2,0.5-4,1.1-5.9,1.9c-1.7,0.7-3.3,1.7-4.8,2.8c-1.1,0.9-2,2-2.6,3.3
	c-0.6,1.2-0.9,2.5-0.9,3.9c0,1.8,0.4,3.6,1.4,5.2c1,1.4,2.3,2.6,3.9,3.3C148.8,555.8,150.8,556.1,152.8,556.1L152.8,556.1z"/>
<path class="st0" d="M212.2,571v-87.5h17.7v21.4l-1.9-2.7c1-3,2.3-5.7,4.1-8.3c1.7-2.5,3.8-4.6,6.3-6.2c2-1.3,4.1-2.3,6.3-3
	c2.3-0.7,4.6-1.2,7-1.4c2.4-0.2,4.8-0.1,7.2,0.2v20.6c-2.5-0.7-5.1-1-7.7-0.8c-2.8,0.2-5.5,1-7.9,2.3c-2.3,1.1-4.4,2.7-6,4.7
	c-1.6,2.1-2.9,4.5-3.6,7c-0.9,2.9-1.4,5.9-1.3,9V571H212.2z"/>
<path class="st0" d="M274.3,471.4V452h20v19.4H274.3z M274.3,571v-87.5h20V571H274.3z"/>
<path class="st0" d="M352.1,573.4c-8,0-15-1.9-21-5.9c-6.1-4-11-9.7-14.1-16.3c-3.4-7.5-5.1-15.7-5-23.9c0-9.2,1.7-17.2,5.1-24.1
	c3.2-6.6,8.1-12.3,14.2-16.3c12.9-7.8,29-7.7,41.9,0.1c6.1,4,11,9.7,14.2,16.3c3.4,7.5,5.1,15.7,5,24c0.2,8.3-1.6,16.5-5.1,24
	c-3.1,6.6-8,12.3-14.2,16.3C367.1,571.5,360.1,573.4,352.1,573.4z M352.1,552.9c6.5,0,11.2-2.4,14.4-7.2s4.7-10.9,4.7-18.4
	s-1.6-14-4.8-18.7s-7.9-6.9-14.3-6.9c-3.8-0.1-7.6,1-10.7,3.2c-2.9,2.3-5.1,5.5-6.2,9c-1.4,4.3-2.1,8.9-2,13.4
	c0,7.8,1.6,14,4.8,18.6C341.2,550.6,345.9,552.9,352.1,552.9z"/>
<path class="st0" d="M438,571V454.4h18l35,77.4l35-77.4h17.9V571h-18.7v-69.6L494.5,571h-7.1l-30.7-69.6V571H438z"/>
<path class="st0" d="M600.3,573.4c-7.5,0.2-14.8-1.9-21.1-5.9c-6.1-4-11-9.7-14.1-16.3c-3.4-7.5-5.1-15.7-5-23.9
	c0-9.2,1.7-17.2,5.2-24.1c3.1-6.6,8-12.3,14.1-16.3c6.3-3.9,13.5-5.9,20.9-5.8c7.4-0.1,14.7,1.9,21,5.9c6.1,4,11,9.7,14.2,16.3
	c6.8,15.3,6.8,32.7,0,48c-3.2,6.6-8.1,12.2-14.2,16.3C615,571.5,607.7,573.6,600.3,573.4z M600.3,552.9c6.4,0,11.2-2.4,14.3-7.2
	s4.8-10.9,4.8-18.4s-1.6-14-4.8-18.7s-8-6.9-14.3-6.9c-3.9-0.2-7.7,1-10.8,3.2c-2.9,2.4-5,5.5-6.2,9c-1.4,4.3-2.1,8.9-2,13.4
	c0,7.8,1.6,14,4.8,18.6C589.3,550.6,594,552.9,600.3,552.9z"/>
<path class="st0" d="M658.2,571V452h20v119H658.2z"/>
<path class="st0" d="M701.8,471.4V452h20v19.4H701.8z M701.8,571v-87.5h20V571H701.8z"/>
<path class="st0" d="M743.7,571v-87.5h17.8v29h2.5V571H743.7z M797.9,571v-41.3c0-2,0-4.5-0.2-7.7c-0.2-3.2-0.9-6.3-1.9-9.3
	c-0.9-3-2.7-5.7-5-7.9c-2.4-2.1-5.7-3.1-9.9-3.1c-1.9,0-3.7,0.3-5.5,0.9c-2.1,0.6-4,1.8-5.5,3.4c-2,2.1-3.5,4.7-4.3,7.5
	c-1.1,3.3-1.6,7.7-1.6,13.1l-11.5-6c0-6.7,1.3-13.2,3.8-19.4c2.4-5.9,6.4-10.9,11.5-14.7c5.2-3.7,11.6-5.6,19.4-5.6
	c6.2,0,11.3,1.2,15.2,3.5c3.8,2.1,6.9,5.2,9.2,8.9c2.1,3.4,3.7,7.2,4.7,11.1c0.9,3.5,1.4,7,1.7,10.6c0.1,3.1,0.2,5.5,0.2,6.9V571
	H797.9z"/>
<path class="st0" d="M859.4,573.4c-5.7,0-10.5-1.2-14.4-3.6c-3.9-2.3-7-5.6-9-9.6c-2-4.1-3.1-8.7-3-13.3c-0.1-3.8,0.5-7.5,1.6-11.1
	c1.2-3.3,3-6.4,5.5-8.9c2.9-2.8,6.4-5,10.2-6.4c3.4-1.3,6.9-2.4,10.5-3.2c4.1-0.9,8.7-1.8,13.9-2.6l16.9-2.8l-7.2,4.4
	c0-5.2-1.1-9-3.3-11.5s-6.1-3.6-11.4-3.6c-3.2,0.1-6.3,0.9-9.2,2.3c-3.2,1.6-5.4,4.4-6.7,8.4l-18.1-6.3c1.8-7,5.8-13.2,11.4-17.7
	c5.5-4.5,13.1-6.8,22.6-6.8c6.4-0.1,12.8,1.1,18.7,3.6c5.5,2.4,9.9,6.8,12.4,12.3c1.5,3,2.4,6.3,2.8,9.7c0.3,3.2,0.4,6.9,0.4,10.9
	V571h-17.5v-18l2.5,3.8c-3.9,5.8-8.1,10.1-12.5,12.7S866.3,573.4,859.4,573.4z M863.7,556.1c3.2,0.1,6.4-0.6,9.3-2.1
	c2.3-1.3,4.3-2.9,6-4.9c3.2-3.6,4.9-8.2,4.9-13c0.2-3.1,0.2-5.7,0.2-7.9l5.9,1.7c-5.9,1-10.7,1.9-14.4,2.7c-3.7,0.7-6.6,1.4-8.9,2
	c-2,0.5-4,1.1-5.9,1.9c-1.7,0.7-3.3,1.7-4.8,2.8c-1.1,0.9-2,2-2.6,3.3c-0.6,1.2-0.9,2.5-0.9,3.9c0,1.8,0.4,3.6,1.4,5.2
	c0.9,1.4,2.3,2.6,3.8,3.3C859.6,555.8,861.6,556.1,863.7,556.1L863.7,556.1z"/>
<polygon class="st0" points="192.6,412.7 72.8,412.7 72.8,166.2 "/>
<polygon class="st0" points="220.1,412.7 339.9,412.7 339.9,166.2 "/>
<polyline class="st0" points="695.9,274 561.2,0 491.3,0 491.3,412.7 564.1,412.7 564.1,166.2 683.9,412.7 711.4,412.7 832,166.2 
	831.2,412.7 904,412.7 904,0 834.1,0 "/>
<polyline class="st1" points="204.7,274 69.9,0 0,0 0,412.7 72.8,412.7 72.8,166.2 192.6,412.7 220.1,412.7 339.9,166.2 
	339.9,412.7 412.7,412.7 412.7,0 342.8,0 "/>
<polygon class="st0" points="342.8,0 204.7,274 69.9,0 "/>
</svg>
